# xmcd
#
# Track frame offsets:
#	150
#	13418
#	28330
#	41798
#	58406
#	70382
#	88710
#	104256
#	121263
#	136544
#	149051
#	165337
#	181311
#	196154
#	209441
#	221150
#	233587
#	258779
#
# Disc length: 3465 seconds
#
# Revision: 0
# Processed by: cddbd v1.5.2PL0 Copyright (c) Steve Scherf et al.
# Submitted via: audiograbber 1.83.01
#
DISCID=0e0d8712
DTITLE=Chartbusters - Country 500 Vol.1 d.14
DYEAR=1900
DGENRE=karaoke
TTITLE0=George Strait - Amarillo by morning
TTITLE1=John Anderson - Swinging
TTITLE2=Janie Fricke - He's a Heartache (Looking for a Place to Happen)
TTITLE3=Alabama - If You're Gonna Play in Texas
TTITLE4=Exile - Woke up in love
TTITLE5=Kenny Rodgers and Dolly Parton - Islands in the stream
TTITLE6=Suzy Bogus - Somewhere in between
TTITLE7=Julio Iglasias and Willie Nelson - To all the girls I've loved before
TTITLE8=Lee Greenwood - God bless the USA
TTITLE9=Shelly West - Jose Cuervo
TTITLE10=Ricky Scaggs - Honey (open that door)
TTITLE11=Alabama - 40 hour week
TTITLE12=The Judds - Mama, he's crazy
TTITLE13=George Strait - The Chair
TTITLE14=The Whites - Hanging around
TTITLE15=George Strait - The Fireman
TTITLE16=Janie Fricke - She's single again
TTITLE17=Data - Track
EXTD=
EXTT0=
EXTT1=
EXTT2=
EXTT3=
EXTT4=
EXTT5=
EXTT6=
EXTT7=
EXTT8=
EXTT9=
EXTT10=
EXTT11=
EXTT12=
EXTT13=
EXTT14=
EXTT15=
EXTT16=
EXTT17=
PLAYORDER=
